<svg version="1.2" baseProfile="tiny-ps" xmlns="http://www.w3.org/2000/svg" viewBox="0 0 38 38" width="38" height="38">
	<title>Footer</title>
	<style>
		tspan { white-space:pre }
		.shp0 { fill: #ffffff } 
	</style>
	<g id="Footer">
		<g id="Social Icons">
			<path id="Dribble" class="shp0" d="M37.32 15.23C37.08 14.04 36.71 12.87 36.24 11.75C35.77 10.64 35.2 9.58 34.52 8.59C33.86 7.61 33.1 6.69 32.26 5.85C31.42 5.01 30.5 4.25 29.52 3.59C28.53 2.91 27.47 2.34 26.36 1.87C25.25 1.4 24.07 1.03 22.88 0.79C21.66 0.54 20.4 0.41 19.14 0.41C17.88 0.41 16.63 0.54 15.4 0.79C14.21 1.03 13.04 1.4 11.92 1.87C10.82 2.34 9.76 2.91 8.77 3.59C7.78 4.25 6.86 5.01 6.02 5.85C5.18 6.69 4.42 7.61 3.76 8.59C3.09 9.58 2.51 10.64 2.05 11.75C1.57 12.87 1.2 14.04 0.96 15.23C0.71 16.45 0.59 17.71 0.59 18.97C0.59 20.23 0.71 21.49 0.96 22.7C1.2 23.9 1.57 25.07 2.05 26.19C2.51 27.29 3.09 28.35 3.76 29.35C4.42 30.33 5.18 31.25 6.02 32.09C6.86 32.93 7.78 33.69 8.77 34.35C9.76 35.02 10.82 35.6 11.92 36.07C13.04 36.54 14.21 36.9 15.4 37.14C16.63 37.4 17.88 37.53 19.14 37.53C20.4 37.53 21.66 37.4 22.88 37.14C24.07 36.9 25.25 36.54 26.36 36.07C27.47 35.6 28.53 35.02 29.52 34.35C30.5 33.69 31.42 32.93 32.26 32.09C33.1 31.25 33.86 30.33 34.52 29.35C35.2 28.35 35.77 27.29 36.24 26.19C36.71 25.07 37.08 23.9 37.32 22.7C37.57 21.49 37.69 20.23 37.69 18.97C37.69 17.71 37.57 16.45 37.32 15.23ZM34.98 18.81C34.75 18.76 29.39 17.61 23.95 18.29C23.84 18.02 23.72 17.75 23.6 17.47C23.27 16.7 22.92 15.93 22.55 15.18C28.81 12.62 31.35 8.95 31.38 8.9C33.6 11.6 34.95 15.05 34.98 18.81ZM29.61 7.08C29.57 7.14 27.31 10.57 21.33 12.81C18.62 7.84 15.65 3.88 15.41 3.57C16.61 3.28 17.85 3.12 19.14 3.12C23.15 3.12 26.82 4.62 29.61 7.08ZM15.35 3.58L15.35 3.59C15.35 3.59 15.32 3.59 15.3 3.59C15.3 3.59 15.33 3.59 15.35 3.58ZM12.38 4.64C12.59 4.92 15.52 8.89 18.26 13.77C10.66 15.79 4.05 15.71 3.63 15.7C4.66 10.8 7.96 6.73 12.38 4.64ZM3.29 18.97C3.29 18.8 3.3 18.63 3.31 18.47C3.59 18.47 11.42 18.65 19.58 16.21C20.03 17.1 20.47 18 20.86 18.91C20.65 18.96 20.45 19.03 20.24 19.09C11.68 21.85 7.35 29.55 7.35 29.55L7.35 29.56C4.83 26.75 3.29 23.04 3.29 18.97ZM19.14 34.82C15.31 34.82 11.79 33.45 9.05 31.19C9.25 31.36 9.4 31.46 9.4 31.46C9.4 31.46 12.44 24.84 21.84 21.56C21.87 21.55 21.91 21.53 21.94 21.53C24.17 27.32 25.09 32.18 25.33 33.56C23.43 34.37 21.34 34.82 19.14 34.82ZM28 32.11C27.84 31.16 26.99 26.51 24.91 20.79C30.03 19.98 34.46 21.38 34.79 21.49C34.08 25.9 31.56 29.71 28 32.11Z" />
		</g>
	</g>
</svg>