<svg version="1.2" baseProfile="tiny-ps" xmlns="http://www.w3.org/2000/svg" viewBox="0 0 37 31" width="37" height="31">
	<title>Footer</title>
	<style>
		tspan { white-space:pre }
		.shp0 { fill: #ffffff } 
	</style>
	<g id="Footer">
		<g id="Social Icons">
			<path id="Twitter" class="shp0" d="M36.85 3.57C35.49 4.17 34.03 4.58 32.49 4.77C34.05 3.83 35.26 2.34 35.83 0.57C34.36 1.44 32.73 2.07 31.01 2.41C29.63 0.94 27.65 0.01 25.47 0.01C21.28 0.01 17.88 3.41 17.88 7.6C17.88 8.2 17.95 8.77 18.08 9.33C11.78 9.02 6.19 5.99 2.44 1.4C1.79 2.52 1.42 3.83 1.42 5.22C1.42 7.85 2.76 10.17 4.79 11.53C3.55 11.49 2.38 11.15 1.35 10.58C1.35 10.61 1.35 10.65 1.35 10.68C1.35 14.35 3.97 17.42 7.44 18.12C6.8 18.29 6.13 18.38 5.44 18.38C4.95 18.38 4.48 18.34 4.02 18.24C4.98 21.26 7.78 23.45 11.1 23.52C8.5 25.55 5.23 26.76 1.68 26.76C1.07 26.76 0.46 26.73 -0.13 26.66C3.23 28.81 7.22 30.06 11.5 30.06C25.45 30.06 33.09 18.5 33.09 8.48C33.09 8.15 33.08 7.82 33.06 7.5C34.54 6.43 35.83 5.09 36.85 3.57Z" />
		</g>
	</g>
</svg>